<svg width="99" height="76" viewBox="0 0 99 76" fill="none" xmlns="http://www.w3.org/2000/svg">
<path d="M29.1176 20.7697L24.7013 16.4457L0 40.6305L24.7013 64.8153L29.1176 60.4913L8.8326 40.6305L29.1176 20.7697Z" fill="url(#paint0_linear_19_21)"/>
<path d="M38.0985 66.8968L43.2254 76L51.6133 69.2587L59.9661 22.307L46.4514 19.9451L38.0985 66.8968ZM62.1101 9.98793C62.4046 8.33231 62.3986 6.9524 60.7281 6.66047L50.7056 4.90888C49.0352 4.61695 49.2896 5.38043 48.5353 7.61556L47.1532 15.3842L60.728 17.7566L62.1101 9.98793Z" fill="url(#paint1_linear_19_21)"/>
<path d="M70.8529 60.4913L75.122 64.8152L99 40.6305L75.122 16.4457L70.8529 20.7696L90.4618 40.6305L70.8529 60.4913Z" fill="url(#paint2_linear_19_21)"/>
<defs>
<linearGradient id="paint0_linear_19_21" x1="0" y1="16.4457" x2="30.5628" y2="34.844" gradientUnits="userSpaceOnUse">
<stop stop-color="#3378FF"/>
<stop offset="1" stop-color="#9442FE" stop-opacity="0.96"/>
</linearGradient>
<linearGradient id="paint1_linear_19_21" x1="11.6471" y1="31.301" x2="66.4431" y2="41.0517" gradientUnits="userSpaceOnUse">
<stop stop-color="#3378FF"/>
<stop offset="1" stop-color="#9442FE" stop-opacity="0.96"/>
</linearGradient>
<linearGradient id="paint2_linear_19_21" x1="99" y1="64.8152" x2="68.9317" y2="47.318" gradientUnits="userSpaceOnUse">
<stop stop-color="#3378FF"/>
<stop offset="1" stop-color="#9442FE" stop-opacity="0.96"/>
</linearGradient>
</defs>
</svg>
