<svg width="129" height="152" viewBox="0 0 129 152" fill="none" xmlns="http://www.w3.org/2000/svg">
<path d="M44.1176 20.7696L39.7013 16.4457L15 40.6305L39.7013 64.8152L44.1176 60.4913L23.8326 40.6305L44.1176 20.7696Z" fill="url(#paint0_linear_44_72)"/>
<path d="M53.0984 66.8968L58.2253 76L66.6132 69.2587L74.966 22.307L61.4513 19.9451L53.0984 66.8968ZM77.11 9.98793C77.4046 8.33231 77.3985 6.9524 75.7281 6.66047L65.7055 4.90888C64.0351 4.61695 64.2895 5.38043 63.5352 7.61556L62.1532 15.3842L75.7279 17.7566L77.11 9.98793Z" fill="url(#paint1_linear_44_72)"/>
<path d="M85.8529 60.4912L90.122 64.8152L114 40.6304L90.122 16.4456L85.8529 20.7696L105.462 40.6304L85.8529 60.4912Z" fill="url(#paint2_linear_44_72)"/>
<path d="M14.976 100.736C19.552 100.736 23.2 101.664 25.92 103.52C28.672 105.344 30.048 108.624 30.048 113.36C30.048 119.408 28.56 124.368 25.584 128.24C22.64 132.08 17.856 134 11.232 134H1.296L5.952 100.736H14.976ZM12.912 106.448L9.84 128.336H12.384C15.904 128.336 18.4 126.848 19.872 123.872C21.376 120.864 22.128 117.36 22.128 113.36C22.128 110.704 21.552 108.896 20.4 107.936C19.248 106.944 17.6 106.448 15.456 106.448H12.912ZM51.7729 116.432C53.7249 116.784 55.3089 117.504 56.5249 118.592C57.7409 119.648 58.3489 121.248 58.3489 123.392C58.3489 126.592 57.1169 129.168 54.6529 131.12C52.2209 133.04 48.2369 134 42.7009 134H32.0929L36.7489 100.736H46.4929C54.8769 100.736 59.0689 103.264 59.0689 108.32C59.0689 110.528 58.3809 112.304 57.0049 113.648C55.6289 114.992 53.8849 115.92 51.7729 116.432ZM45.4849 114.032C47.4049 114.032 48.8129 113.584 49.7089 112.688C50.6369 111.792 51.1009 110.608 51.1009 109.136C51.1009 108.112 50.7169 107.392 49.9489 106.976C49.2129 106.528 48.0929 106.304 46.5889 106.304H43.6609L42.6049 114.032H45.4849ZM43.3729 128.288C46.0289 128.288 47.8689 127.808 48.8929 126.848C49.9169 125.888 50.4289 124.544 50.4289 122.816C50.4289 120.448 48.7489 119.264 45.3889 119.264H41.8369L40.5889 128.288H43.3729ZM69.2171 127.136C69.1531 127.744 69.2011 128.176 69.3611 128.432C69.5211 128.688 69.8091 128.816 70.2251 128.816C70.5771 128.816 70.9931 128.736 71.4731 128.576L72.3851 133.856C70.9451 134.496 69.3451 134.816 67.5851 134.816C65.6971 134.816 64.2251 134.336 63.1691 133.376C62.1451 132.384 61.6331 130.944 61.6331 129.056C61.6331 128.512 61.6811 127.936 61.7771 127.328L65.8571 98.384L73.3451 97.568L69.2171 127.136ZM85.5469 134.816C82.1869 134.816 79.5629 133.856 77.6749 131.936C75.8189 130.016 74.8909 127.36 74.8909 123.968C74.8909 121.344 75.3549 118.8 76.2829 116.336C77.2109 113.84 78.7309 111.776 80.8429 110.144C82.9869 108.512 85.7389 107.696 89.0989 107.696C92.4269 107.696 95.0349 108.656 96.9229 110.576C98.8109 112.496 99.7549 115.104 99.7549 118.4C99.7549 121.024 99.2909 123.584 98.3629 126.08C97.4349 128.576 95.8989 130.656 93.7549 132.32C91.6429 133.984 88.9069 134.816 85.5469 134.816ZM86.0749 129.248C88.2829 129.248 89.8349 128.08 90.7309 125.744C91.6269 123.376 92.0909 120.816 92.1229 118.064C92.1229 116.4 91.8189 115.184 91.2109 114.416C90.6349 113.648 89.7549 113.264 88.5709 113.264C86.3629 113.264 84.7949 114.448 83.8669 116.816C82.9709 119.184 82.5229 121.728 82.5229 124.448C82.5229 126.112 82.8109 127.328 83.3869 128.096C83.9629 128.864 84.8589 129.248 86.0749 129.248ZM117.237 107.696C120.917 107.696 124.389 108.592 127.653 110.384L124.485 132.032C123.845 136.48 122.453 139.696 120.309 141.68C118.197 143.696 115.125 144.704 111.093 144.704C109.525 144.704 107.877 144.448 106.149 143.936C104.453 143.424 102.901 142.736 101.493 141.872L104.037 136.928C106.469 138.272 108.773 138.944 110.949 138.944C112.613 138.944 113.973 138.544 115.029 137.744C116.117 136.944 116.821 135.408 117.141 133.136L117.477 130.688C116.581 131.712 115.557 132.528 114.405 133.136C113.285 133.712 112.069 134 110.757 134C108.069 134 106.005 133.104 104.565 131.312C103.125 129.52 102.405 127.12 102.405 124.112C102.405 121.52 102.901 118.976 103.893 116.48C104.917 113.952 106.533 111.856 108.741 110.192C110.981 108.528 113.813 107.696 117.237 107.696ZM116.997 113.072C115.397 113.072 114.085 113.632 113.061 114.752C112.037 115.872 111.285 117.264 110.805 118.928C110.357 120.592 110.133 122.256 110.133 123.92C110.133 126.896 111.125 128.384 113.109 128.384C114.837 128.384 116.501 127.2 118.101 124.832L119.877 113.552C118.917 113.232 117.957 113.072 116.997 113.072Z" fill="url(#paint3_linear_44_72)"/>
<defs>
<linearGradient id="paint0_linear_44_72" x1="15" y1="16.4457" x2="45.5628" y2="34.844" gradientUnits="userSpaceOnUse">
<stop stop-color="#3378FF"/>
<stop offset="1" stop-color="#9442FE" stop-opacity="0.96"/>
</linearGradient>
<linearGradient id="paint1_linear_44_72" x1="26.647" y1="31.301" x2="81.443" y2="41.0517" gradientUnits="userSpaceOnUse">
<stop stop-color="#3378FF"/>
<stop offset="1" stop-color="#9442FE" stop-opacity="0.96"/>
</linearGradient>
<linearGradient id="paint2_linear_44_72" x1="114" y1="64.8152" x2="83.9317" y2="47.3179" gradientUnits="userSpaceOnUse">
<stop stop-color="#3378FF"/>
<stop offset="1" stop-color="#9442FE" stop-opacity="0.96"/>
</linearGradient>
<linearGradient id="paint3_linear_44_72" x1="0" y1="84" x2="40.1124" y2="160.096" gradientUnits="userSpaceOnUse">
<stop stop-color="#3378FF"/>
<stop offset="1" stop-color="#9442FE" stop-opacity="0.96"/>
</linearGradient>
</defs>
</svg>
